<svg width="24" height="28" viewBox="0 0 24 28" fill="none" xmlns="http://www.w3.org/2000/svg">
<path fill-rule="evenodd" clip-rule="evenodd" d="M0 4.66699C0 2.45785 1.79086 0.666992 4 0.666992H14.6667C19.8213 0.666992 24 4.84567 24 10.0003V23.3337C24 25.5428 22.2091 27.3337 20 27.3337H4C1.79086 27.3337 0 25.5428 0 23.3337V4.66699ZM13.3333 3.33366H4C3.26362 3.33366 2.66667 3.93061 2.66667 4.66699V23.3337C2.66667 24.07 3.26362 24.667 4 24.667H20C20.7364 24.667 21.3333 24.07 21.3333 23.3337V10.0003H13.3333V3.33366ZM20.7786 7.33366C19.9217 5.3724 18.1484 3.90313 16 3.46702V7.33366H20.7786Z" fill="black"/>
</svg>
